# xmcd CD database file
#
# Track frame offsets:
#	150
#	29439
#	44800
#	67031
#	87893
#	112214
#	129306
#	147944
#	176822
#	192114
#	213660
#	240534
#
# Disc length: 3572 seconds
#
# Revision: 0
# Processed by: cddbd v1.5.2PL0 Copyright (c) Steve Scherf et al.
# Submitted via: CDex 1.70beta2
#
DISCID=b90df20c
DTITLE=Swingline Cubs - On the Street
DYEAR=1996
DGENRE=Jazz
TTITLE0=Let's Stay Together
TTITLE1=Unchain My Heart
TTITLE2=Over The Rainbow
TTITLE3=Love the One You're With
TTITLE4=Not On Your Life
TTITLE5=Riot In Cell Block #9
TTITLE6=You're The Best Thing
TTITLE7=Harlem Nocturne
TTITLE8=On the Street Where You Live
TTITLE9=Tears Of A Clown
TTITLE10=Save Your Love For Me
TTITLE11=Mustang Sally
EXTD=YEAR: 1996
EXTT0=
EXTT1=
EXTT2=
EXTT3=
EXTT4=
EXTT5=
EXTT6=
EXTT7=
EXTT8=
EXTT9=
EXTT10=
EXTT11=
PLAYORDER=
